<svg width="100" height="100" viewBox="0 0 100 100" fill="none" xmlns="http://www.w3.org/2000/svg">
<rect width="100" height="100" fill="white"/>
<g clip-path="url(#clip0_2003_12)">
<mask id="mask0_2003_12" style="mask-type:luminance" maskUnits="userSpaceOnUse" x="0" y="0" width="100" height="100">
<path d="M0 0H100V100H0V0Z" fill="white"/>
</mask>
<g mask="url(#mask0_2003_12)">
<path d="M50 0C51.1051 0 52.1649 0.438987 52.9463 1.22039C53.7277 2.00179 54.1667 3.0616 54.1667 4.16667V20.8333C54.1667 21.9384 53.7277 22.9982 52.9463 23.7796C52.1649 24.561 51.1051 25 50 25C48.8949 25 47.8351 24.561 47.0537 23.7796C46.2723 22.9982 45.8333 21.9384 45.8333 20.8333V4.16667C45.8333 3.0616 46.2723 2.00179 47.0537 1.22039C47.8351 0.438987 48.8949 0 50 0ZM20.5375 14.6458C19.7517 13.8868 18.6991 13.4669 17.6067 13.4764C16.5142 13.4859 15.4691 13.9241 14.6966 14.6966C13.9241 15.4691 13.4859 16.5142 13.4764 17.6067C13.4669 18.6991 13.8868 19.7517 14.6458 20.5375L26.4292 32.3208C27.215 33.0798 28.2675 33.4998 29.36 33.4903C30.4525 33.4808 31.4975 33.0426 32.2701 32.2701C33.0426 31.4975 33.4808 30.4525 33.4903 29.36C33.4998 28.2675 33.0798 27.215 32.3208 26.4292L20.5375 14.6458ZM4.16667 45.8333C3.0616 45.8333 2.00179 46.2723 1.22039 47.0537C0.438987 47.8351 0 48.8949 0 50C0 51.1051 0.438987 52.1649 1.22039 52.9463C2.00179 53.7277 3.0616 54.1667 4.16667 54.1667H20.8333C21.9384 54.1667 22.9982 53.7277 23.7796 52.9463C24.561 52.1649 25 51.1051 25 50C25 48.8949 24.561 47.8351 23.7796 47.0537C22.9982 46.2723 21.9384 45.8333 20.8333 45.8333H4.16667ZM75 50C75 48.8949 75.439 47.8351 76.2204 47.0537C77.0018 46.2723 78.0616 45.8333 79.1667 45.8333H95.8333C96.9384 45.8333 97.9982 46.2723 98.7796 47.0537C99.561 47.8351 100 48.8949 100 50C100 51.1051 99.561 52.1649 98.7796 52.9463C97.9982 53.7277 96.9384 54.1667 95.8333 54.1667H79.1667C78.0616 54.1667 77.0018 53.7277 76.2204 52.9463C75.439 52.1649 75 51.1051 75 50ZM73.5708 67.6792C72.785 66.9202 71.7325 66.5002 70.64 66.5097C69.5475 66.5192 68.5025 66.9574 67.7299 67.7299C66.9574 68.5025 66.5192 69.5475 66.5097 70.64C66.5002 71.7325 66.9202 72.785 67.6792 73.5708L79.4625 85.3542C79.8469 85.7521 80.3066 86.0695 80.815 86.2879C81.3233 86.5063 81.8701 86.6212 82.4233 86.626C82.9766 86.6308 83.5252 86.5254 84.0373 86.3159C84.5494 86.1064 85.0146 85.797 85.4058 85.4058C85.797 85.0146 86.1064 84.5494 86.3159 84.0373C86.5254 83.5252 86.6308 82.9766 86.626 82.4233C86.6212 81.8701 86.5063 81.3233 86.2879 80.815C86.0695 80.3066 85.7521 79.8469 85.3542 79.4625L73.5708 67.6792ZM32.3208 73.5708C32.7188 73.1865 33.0362 72.7267 33.2546 72.2184C33.473 71.71 33.5879 71.1633 33.5927 70.61C33.5975 70.0568 33.4921 69.5081 33.2826 68.996C33.0731 68.484 32.7637 68.0187 32.3725 67.6275C31.9813 67.2363 31.516 66.9269 31.004 66.7174C30.4919 66.5079 29.9432 66.4025 29.39 66.4073C28.8367 66.4121 28.29 66.527 27.7816 66.7454C27.2733 66.9638 26.8135 67.2812 26.4292 67.6792L14.6458 79.4583C14.2479 79.8427 13.9304 80.3025 13.7121 80.8108C13.4937 81.3192 13.3788 81.8659 13.374 82.4192C13.3691 82.9724 13.4746 83.5211 13.6841 84.0331C13.8936 84.5452 14.203 85.0104 14.5942 85.4016C14.9854 85.7929 15.4506 86.1022 15.9627 86.3118C16.4748 86.5213 17.0234 86.6267 17.5767 86.6219C18.1299 86.6171 18.6767 86.5021 19.185 86.2838C19.6934 86.0654 20.1531 85.748 20.5375 85.35L32.3208 73.5708ZM85.3542 20.5375C86.1132 19.7517 86.5331 18.6991 86.5236 17.6067C86.5141 16.5142 86.0759 15.4691 85.3034 14.6966C84.5309 13.9241 83.4858 13.4859 82.3933 13.4764C81.3008 13.4669 80.2483 13.8868 79.4625 14.6458L67.6792 26.4292C67.2812 26.8135 66.9638 27.2733 66.7454 27.7816C66.527 28.29 66.4121 28.8367 66.4073 29.39C66.4025 29.9432 66.5079 30.4919 66.7174 31.004C66.9269 31.516 67.2363 31.9813 67.6275 32.3725C68.0187 32.7637 68.484 33.0731 68.996 33.2826C69.5081 33.4921 70.0568 33.5975 70.61 33.5927C71.1633 33.5879 71.71 33.473 72.2184 33.2546C72.7267 33.0362 73.1865 32.7188 73.5708 32.3208L85.3542 20.5375ZM54.1667 79.1667C54.1667 78.0616 53.7277 77.0018 52.9463 76.2204C52.1649 75.439 51.1051 75 50 75C48.8949 75 47.8351 75.439 47.0537 76.2204C46.2723 77.0018 45.8333 78.0616 45.8333 79.1667V95.8333C45.8333 96.9384 46.2723 97.9982 47.0537 98.7796C47.8351 99.561 48.8949 100 50 100C51.1051 100 52.1649 99.561 52.9463 98.7796C53.7277 97.9982 54.1667 96.9384 54.1667 95.8333V79.1667ZM50 29.1667C44.4747 29.1667 39.1756 31.3616 35.2686 35.2686C31.3616 39.1756 29.1667 44.4747 29.1667 50C29.1667 55.5253 31.3616 60.8244 35.2686 64.7314C39.1756 68.6384 44.4747 70.8333 50 70.8333C55.5253 70.8333 60.8244 68.6384 64.7314 64.7314C68.6384 60.8244 70.8333 55.5253 70.8333 50C70.8333 44.4747 68.6384 39.1756 64.7314 35.2686C60.8244 31.3616 55.5253 29.1667 50 29.1667Z" fill="black"/>
</g>
</g>
<defs>
<clipPath id="clip0_2003_12">
<rect width="100" height="100" fill="white"/>
</clipPath>
</defs>
</svg>
